<svg width="30" height="30" viewBox="0 0 30 30" fill="none" xmlns="http://www.w3.org/2000/svg">
<path d="M27.5008 21.1501V24.9001C27.5022 25.2482 27.4309 25.5928 27.2914 25.9118C27.1519 26.2308 26.9474 26.5171 26.6909 26.7525C26.4343 26.9878 26.1315 27.167 25.8017 27.2785C25.4719 27.39 25.1225 27.4315 24.7758 27.4001C20.9293 26.9822 17.2345 25.6678 13.9883 23.5626C10.9681 21.6435 8.40744 19.0828 6.48827 16.0626C4.37574 12.8016 3.06107 9.08886 2.65077 5.22512C2.61953 4.87945 2.66061 4.53107 2.7714 4.20215C2.88218 3.87323 3.06023 3.57098 3.29423 3.31465C3.52822 3.05831 3.81303 2.85351 4.13051 2.71327C4.44799 2.57304 4.7912 2.50045 5.13827 2.50012H8.88827C9.4949 2.49415 10.083 2.70897 10.543 3.10454C11.0029 3.5001 11.3034 4.04943 11.3883 4.65012C11.5465 5.8502 11.8401 7.02853 12.2633 8.16262C12.4314 8.61003 12.4678 9.09626 12.3682 9.56372C12.2685 10.0312 12.0368 10.4603 11.7008 10.8001L10.1133 12.3876C11.8927 15.5171 14.4838 18.1082 17.6133 19.8876L19.2008 18.3001C19.5406 17.964 19.9697 17.7324 20.4372 17.6327C20.9046 17.533 21.3909 17.5694 21.8383 17.7376C22.9724 18.1608 24.1507 18.4543 25.3508 18.6126C25.958 18.6983 26.5125 19.0041 26.9089 19.472C27.3053 19.9398 27.516 20.5371 27.5008 21.1501Z" stroke="#E73756" stroke-width="2" stroke-linecap="round" stroke-linejoin="round"/>
</svg>
