<svg width="1920" height="549" viewBox="0 0 1920 549" fill="none" xmlns="http://www.w3.org/2000/svg">
<g clip-path="url(#clip0_2_522)">
<rect y="-107" width="1920" height="745" fill="white"/>
<path d="M251.182 276.818L248 265L244.818 276.818L233 280L244.818 283.182L248 295L251.182 283.182L263 280L251.182 276.818Z" fill="#FAEFF1"/>
<path d="M291.182 276.818L288 265L284.818 276.818L273 280L284.818 283.182L288 295L291.182 283.182L303 280L291.182 276.818Z" fill="#FAEFF1"/>
<path d="M328 265L331.182 276.818L343 280L331.182 283.182L328 295L324.818 283.182L313 280L324.818 276.818L328 265Z" fill="#FAEFF1"/>
<path d="M371.182 276.818L368 265L364.818 276.818L353 280L364.818 283.182L368 295L371.182 283.182L383 280L371.182 276.818Z" fill="#FAEFF1"/>
<path d="M408 265L411.182 276.818L423 280L411.182 283.182L408 295L404.818 283.182L393 280L404.818 276.818L408 265Z" fill="#FAEFF1"/>
<path d="M451.182 276.818L448 265L444.818 276.818L433 280L444.818 283.182L448 295L451.182 283.182L463 280L451.182 276.818Z" fill="#FAEFF1"/>
<path d="M488 265L491.182 276.818L503 280L491.182 283.182L488 295L484.818 283.182L473 280L484.818 276.818L488 265Z" fill="#FAEFF1"/>
<path d="M531.182 276.818L528 265L524.818 276.818L513 280L524.818 283.182L528 295L531.182 283.182L543 280L531.182 276.818Z" fill="#FAEFF1"/>
<path d="M248 305L251.182 316.818L263 320L251.182 323.182L248 335L244.818 323.182L233 320L244.818 316.818L248 305Z" fill="#FAEFF1"/>
<path d="M291.182 316.818L288 305L284.818 316.818L273 320L284.818 323.182L288 335L291.182 323.182L303 320L291.182 316.818Z" fill="#FAEFF1"/>
<path d="M328 305L331.182 316.818L343 320L331.182 323.182L328 335L324.818 323.182L313 320L324.818 316.818L328 305Z" fill="#FAEFF1"/>
<path d="M371.182 316.818L368 305L364.818 316.818L353 320L364.818 323.182L368 335L371.182 323.182L383 320L371.182 316.818Z" fill="#FAEFF1"/>
<path d="M408 305L411.182 316.818L423 320L411.182 323.182L408 335L404.818 323.182L393 320L404.818 316.818L408 305Z" fill="#FAEFF1"/>
<path d="M451.182 316.818L448 305L444.818 316.818L433 320L444.818 323.182L448 335L451.182 323.182L463 320L451.182 316.818Z" fill="#FAEFF1"/>
<path d="M488 305L491.182 316.818L503 320L491.182 323.182L488 335L484.818 323.182L473 320L484.818 316.818L488 305Z" fill="#FAEFF1"/>
<path d="M531.182 316.818L528 305L524.818 316.818L513 320L524.818 323.182L528 335L531.182 323.182L543 320L531.182 316.818Z" fill="#FAEFF1"/>
<path d="M248 345L251.182 356.818L263 360L251.182 363.182L248 375L244.818 363.182L233 360L244.818 356.818L248 345Z" fill="#FAEFF1"/>
<path d="M291.182 356.818L288 345L284.818 356.818L273 360L284.818 363.182L288 375L291.182 363.182L303 360L291.182 356.818Z" fill="#FAEFF1"/>
<path d="M328 345L331.182 356.818L343 360L331.182 363.182L328 375L324.818 363.182L313 360L324.818 356.818L328 345Z" fill="#FAEFF1"/>
<path d="M371.182 356.818L368 345L364.818 356.818L353 360L364.818 363.182L368 375L371.182 363.182L383 360L371.182 356.818Z" fill="#FAEFF1"/>
<path d="M408 345L411.182 356.818L423 360L411.182 363.182L408 375L404.818 363.182L393 360L404.818 356.818L408 345Z" fill="#FAEFF1"/>
<path d="M451.182 356.818L448 345L444.818 356.818L433 360L444.818 363.182L448 375L451.182 363.182L463 360L451.182 356.818Z" fill="#FAEFF1"/>
<path d="M488 345L491.182 356.818L503 360L491.182 363.182L488 375L484.818 363.182L473 360L484.818 356.818L488 345Z" fill="#FAEFF1"/>
<path d="M531.182 356.818L528 345L524.818 356.818L513 360L524.818 363.182L528 375L531.182 363.182L543 360L531.182 356.818Z" fill="#FAEFF1"/>
<path d="M248 385L251.182 396.818L263 400L251.182 403.182L248 415L244.818 403.182L233 400L244.818 396.818L248 385Z" fill="#FAEFF1"/>
<path d="M291.182 396.818L288 385L284.818 396.818L273 400L284.818 403.182L288 415L291.182 403.182L303 400L291.182 396.818Z" fill="#FAEFF1"/>
<path d="M328 385L331.182 396.818L343 400L331.182 403.182L328 415L324.818 403.182L313 400L324.818 396.818L328 385Z" fill="#FAEFF1"/>
<path d="M371.182 396.818L368 385L364.818 396.818L353 400L364.818 403.182L368 415L371.182 403.182L383 400L371.182 396.818Z" fill="#FAEFF1"/>
<path d="M408 385L411.182 396.818L423 400L411.182 403.182L408 415L404.818 403.182L393 400L404.818 396.818L408 385Z" fill="#FAEFF1"/>
<path d="M451.182 396.818L448 385L444.818 396.818L433 400L444.818 403.182L448 415L451.182 403.182L463 400L451.182 396.818Z" fill="#FAEFF1"/>
<path d="M488 385L491.182 396.818L503 400L491.182 403.182L488 415L484.818 403.182L473 400L484.818 396.818L488 385Z" fill="#FAEFF1"/>
<path d="M531.182 396.818L528 385L524.818 396.818L513 400L524.818 403.182L528 415L531.182 403.182L543 400L531.182 396.818Z" fill="#FAEFF1"/>
<path d="M248 425L251.182 436.818L263 440L251.182 443.182L248 455L244.818 443.182L233 440L244.818 436.818L248 425Z" fill="#FAEFF1"/>
<path d="M291.182 436.818L288 425L284.818 436.818L273 440L284.818 443.182L288 455L291.182 443.182L303 440L291.182 436.818Z" fill="#FAEFF1"/>
<path d="M328 425L331.182 436.818L343 440L331.182 443.182L328 455L324.818 443.182L313 440L324.818 436.818L328 425Z" fill="#FAEFF1"/>
<path d="M371.182 436.818L368 425L364.818 436.818L353 440L364.818 443.182L368 455L371.182 443.182L383 440L371.182 436.818Z" fill="#FAEFF1"/>
<path d="M408 425L411.182 436.818L423 440L411.182 443.182L408 455L404.818 443.182L393 440L404.818 436.818L408 425Z" fill="#FAEFF1"/>
<path d="M451.182 436.818L448 425L444.818 436.818L433 440L444.818 443.182L448 455L451.182 443.182L463 440L451.182 436.818Z" fill="#FAEFF1"/>
<path d="M488 425L491.182 436.818L503 440L491.182 443.182L488 455L484.818 443.182L473 440L484.818 436.818L488 425Z" fill="#FAEFF1"/>
<path d="M531.182 436.818L528 425L524.818 436.818L513 440L524.818 443.182L528 455L531.182 443.182L543 440L531.182 436.818Z" fill="#FAEFF1"/>
<path d="M248 465L251.182 476.818L263 480L251.182 483.182L248 495L244.818 483.182L233 480L244.818 476.818L248 465Z" fill="#FAEFF1"/>
<path d="M291.182 476.818L288 465L284.818 476.818L273 480L284.818 483.182L288 495L291.182 483.182L303 480L291.182 476.818Z" fill="#FAEFF1"/>
<path d="M328 465L331.182 476.818L343 480L331.182 483.182L328 495L324.818 483.182L313 480L324.818 476.818L328 465Z" fill="#FAEFF1"/>
<path d="M371.182 476.818L368 465L364.818 476.818L353 480L364.818 483.182L368 495L371.182 483.182L383 480L371.182 476.818Z" fill="#FAEFF1"/>
<path d="M408 465L411.182 476.818L423 480L411.182 483.182L408 495L404.818 483.182L393 480L404.818 476.818L408 465Z" fill="#FAEFF1"/>
<path d="M451.182 476.818L448 465L444.818 476.818L433 480L444.818 483.182L448 495L451.182 483.182L463 480L451.182 476.818Z" fill="#FAEFF1"/>
<path d="M488 465L491.182 476.818L503 480L491.182 483.182L488 495L484.818 483.182L473 480L484.818 476.818L488 465Z" fill="#FAEFF1"/>
<path d="M531.182 476.818L528 465L524.818 476.818L513 480L524.818 483.182L528 495L531.182 483.182L543 480L531.182 476.818Z" fill="#FAEFF1"/>
</g>
<defs>
<clipPath id="clip0_2_522">
<rect width="1920" height="549" fill="white"/>
</clipPath>
</defs>
</svg>
