<svg width="1920" height="757" viewBox="0 0 1920 757" fill="none" xmlns="http://www.w3.org/2000/svg">
<path d="M0 0H1920V757H0V0Z" fill="white"/>
<path d="M175 0H1745V757H175V0Z" fill="#FAEFF1"/>
<path d="M75.182 57.818L72 46L68.818 57.818L57 61L68.818 64.182L72 76L75.182 64.182L87 61L75.182 57.818Z" fill="#FAEFF1"/>
<path d="M115.182 57.818L112 46L108.818 57.818L97 61L108.818 64.182L112 76L115.182 64.182L127 61L115.182 57.818Z" fill="#FAEFF1"/>
<path d="M152 46L155.182 57.818L167 61L155.182 64.182L152 76L148.818 64.182L137 61L148.818 57.818L152 46Z" fill="#FAEFF1"/>
<path d="M195.182 57.818L192 46L188.818 57.818L177 61L188.818 64.182L192 76L195.182 64.182L207 61L195.182 57.818Z" fill="#FAEFF1"/>
<path d="M232 46L235.182 57.818L247 61L235.182 64.182L232 76L228.818 64.182L217 61L228.818 57.818L232 46Z" fill="#FAEFF1"/>
<path d="M275.182 57.818L272 46L268.818 57.818L257 61L268.818 64.182L272 76L275.182 64.182L287 61L275.182 57.818Z" fill="#FAEFF1"/>
<path d="M312 46L315.182 57.818L327 61L315.182 64.182L312 76L308.818 64.182L297 61L308.818 57.818L312 46Z" fill="#FAEFF1"/>
<path d="M355.182 57.818L352 46L348.818 57.818L337 61L348.818 64.182L352 76L355.182 64.182L367 61L355.182 57.818Z" fill="#FAEFF1"/>
<path d="M72 86L75.182 97.818L87 101L75.182 104.182L72 116L68.818 104.182L57 101L68.818 97.818L72 86Z" fill="#FAEFF1"/>
<path d="M115.182 97.818L112 86L108.818 97.818L97 101L108.818 104.182L112 116L115.182 104.182L127 101L115.182 97.818Z" fill="#FAEFF1"/>
<path d="M152 86L155.182 97.818L167 101L155.182 104.182L152 116L148.818 104.182L137 101L148.818 97.818L152 86Z" fill="#FAEFF1"/>
<path d="M195.182 97.818L192 86L188.818 97.818L177 101L188.818 104.182L192 116L195.182 104.182L207 101L195.182 97.818Z" fill="#FAEFF1"/>
<path d="M232 86L235.182 97.818L247 101L235.182 104.182L232 116L228.818 104.182L217 101L228.818 97.818L232 86Z" fill="#FAEFF1"/>
<path d="M275.182 97.818L272 86L268.818 97.818L257 101L268.818 104.182L272 116L275.182 104.182L287 101L275.182 97.818Z" fill="#FAEFF1"/>
<path d="M312 86L315.182 97.818L327 101L315.182 104.182L312 116L308.818 104.182L297 101L308.818 97.818L312 86Z" fill="#FAEFF1"/>
<path d="M355.182 97.818L352 86L348.818 97.818L337 101L348.818 104.182L352 116L355.182 104.182L367 101L355.182 97.818Z" fill="#FAEFF1"/>
<path d="M72 126L75.182 137.818L87 141L75.182 144.182L72 156L68.818 144.182L57 141L68.818 137.818L72 126Z" fill="#FAEFF1"/>
<path d="M115.182 137.818L112 126L108.818 137.818L97 141L108.818 144.182L112 156L115.182 144.182L127 141L115.182 137.818Z" fill="#FAEFF1"/>
<path d="M152 126L155.182 137.818L167 141L155.182 144.182L152 156L148.818 144.182L137 141L148.818 137.818L152 126Z" fill="#FAEFF1"/>
<path d="M195.182 137.818L192 126L188.818 137.818L177 141L188.818 144.182L192 156L195.182 144.182L207 141L195.182 137.818Z" fill="#FAEFF1"/>
<path d="M232 126L235.182 137.818L247 141L235.182 144.182L232 156L228.818 144.182L217 141L228.818 137.818L232 126Z" fill="#FAEFF1"/>
<path d="M275.182 137.818L272 126L268.818 137.818L257 141L268.818 144.182L272 156L275.182 144.182L287 141L275.182 137.818Z" fill="#FAEFF1"/>
<path d="M312 126L315.182 137.818L327 141L315.182 144.182L312 156L308.818 144.182L297 141L308.818 137.818L312 126Z" fill="#FAEFF1"/>
<path d="M355.182 137.818L352 126L348.818 137.818L337 141L348.818 144.182L352 156L355.182 144.182L367 141L355.182 137.818Z" fill="#FAEFF1"/>
<path d="M72 166L75.182 177.818L87 181L75.182 184.182L72 196L68.818 184.182L57 181L68.818 177.818L72 166Z" fill="#FAEFF1"/>
<path d="M115.182 177.818L112 166L108.818 177.818L97 181L108.818 184.182L112 196L115.182 184.182L127 181L115.182 177.818Z" fill="#FAEFF1"/>
<path d="M152 166L155.182 177.818L167 181L155.182 184.182L152 196L148.818 184.182L137 181L148.818 177.818L152 166Z" fill="#FAEFF1"/>
<path d="M195.182 177.818L192 166L188.818 177.818L177 181L188.818 184.182L192 196L195.182 184.182L207 181L195.182 177.818Z" fill="#FAEFF1"/>
<path d="M232 166L235.182 177.818L247 181L235.182 184.182L232 196L228.818 184.182L217 181L228.818 177.818L232 166Z" fill="#FAEFF1"/>
<path d="M275.182 177.818L272 166L268.818 177.818L257 181L268.818 184.182L272 196L275.182 184.182L287 181L275.182 177.818Z" fill="#FAEFF1"/>
<path d="M312 166L315.182 177.818L327 181L315.182 184.182L312 196L308.818 184.182L297 181L308.818 177.818L312 166Z" fill="#FAEFF1"/>
<path d="M355.182 177.818L352 166L348.818 177.818L337 181L348.818 184.182L352 196L355.182 184.182L367 181L355.182 177.818Z" fill="#FAEFF1"/>
<path d="M72 206L75.182 217.818L87 221L75.182 224.182L72 236L68.818 224.182L57 221L68.818 217.818L72 206Z" fill="#FAEFF1"/>
<path d="M115.182 217.818L112 206L108.818 217.818L97 221L108.818 224.182L112 236L115.182 224.182L127 221L115.182 217.818Z" fill="#FAEFF1"/>
<path d="M152 206L155.182 217.818L167 221L155.182 224.182L152 236L148.818 224.182L137 221L148.818 217.818L152 206Z" fill="#FAEFF1"/>
<path d="M195.182 217.818L192 206L188.818 217.818L177 221L188.818 224.182L192 236L195.182 224.182L207 221L195.182 217.818Z" fill="#FAEFF1"/>
<path d="M232 206L235.182 217.818L247 221L235.182 224.182L232 236L228.818 224.182L217 221L228.818 217.818L232 206Z" fill="#FAEFF1"/>
<path d="M275.182 217.818L272 206L268.818 217.818L257 221L268.818 224.182L272 236L275.182 224.182L287 221L275.182 217.818Z" fill="#FAEFF1"/>
<path d="M312 206L315.182 217.818L327 221L315.182 224.182L312 236L308.818 224.182L297 221L308.818 217.818L312 206Z" fill="#FAEFF1"/>
<path d="M355.182 217.818L352 206L348.818 217.818L337 221L348.818 224.182L352 236L355.182 224.182L367 221L355.182 217.818Z" fill="#FAEFF1"/>
<path d="M72 246L75.182 257.818L87 261L75.182 264.182L72 276L68.818 264.182L57 261L68.818 257.818L72 246Z" fill="#FAEFF1"/>
<path d="M115.182 257.818L112 246L108.818 257.818L97 261L108.818 264.182L112 276L115.182 264.182L127 261L115.182 257.818Z" fill="#FAEFF1"/>
<path d="M152 246L155.182 257.818L167 261L155.182 264.182L152 276L148.818 264.182L137 261L148.818 257.818L152 246Z" fill="#FAEFF1"/>
<path d="M195.182 257.818L192 246L188.818 257.818L177 261L188.818 264.182L192 276L195.182 264.182L207 261L195.182 257.818Z" fill="#FAEFF1"/>
<path d="M232 246L235.182 257.818L247 261L235.182 264.182L232 276L228.818 264.182L217 261L228.818 257.818L232 246Z" fill="#FAEFF1"/>
<path d="M275.182 257.818L272 246L268.818 257.818L257 261L268.818 264.182L272 276L275.182 264.182L287 261L275.182 257.818Z" fill="#FAEFF1"/>
<path d="M312 246L315.182 257.818L327 261L315.182 264.182L312 276L308.818 264.182L297 261L308.818 257.818L312 246Z" fill="#FAEFF1"/>
<path d="M355.182 257.818L352 246L348.818 257.818L337 261L348.818 264.182L352 276L355.182 264.182L367 261L355.182 257.818Z" fill="#FAEFF1"/>
</svg>
