<svg width="1920" height="549" viewBox="0 0 1920 549" fill="none" xmlns="http://www.w3.org/2000/svg">
<rect y="-87.001" width="1920" height="636" fill="white"/>
<path d="M1312.5 82H1745V467H1312.5L1219 279.404L1312.5 82Z" fill="#FAEFF1"/>
<path d="M1409.18 19.818L1406 8L1402.82 19.818L1391 23L1402.82 26.182L1406 38L1409.18 26.182L1421 23L1409.18 19.818Z" fill="#FAEFF1"/>
<path d="M1449.18 19.818L1446 8L1442.82 19.818L1431 23L1442.82 26.182L1446 38L1449.18 26.182L1461 23L1449.18 19.818Z" fill="#FAEFF1"/>
<path d="M1486 8L1489.18 19.818L1501 23L1489.18 26.182L1486 38L1482.82 26.182L1471 23L1482.82 19.818L1486 8Z" fill="#FAEFF1"/>
<path d="M1529.18 19.818L1526 8L1522.82 19.818L1511 23L1522.82 26.182L1526 38L1529.18 26.182L1541 23L1529.18 19.818Z" fill="#FAEFF1"/>
<path d="M1566 8L1569.18 19.818L1581 23L1569.18 26.182L1566 38L1562.82 26.182L1551 23L1562.82 19.818L1566 8Z" fill="#FAEFF1"/>
<path d="M1609.18 19.818L1606 8L1602.82 19.818L1591 23L1602.82 26.182L1606 38L1609.18 26.182L1621 23L1609.18 19.818Z" fill="#FAEFF1"/>
<path d="M1646 8L1649.18 19.818L1661 23L1649.18 26.182L1646 38L1642.82 26.182L1631 23L1642.82 19.818L1646 8Z" fill="#FAEFF1"/>
<path d="M1689.18 19.818L1686 8L1682.82 19.818L1671 23L1682.82 26.182L1686 38L1689.18 26.182L1701 23L1689.18 19.818Z" fill="#FAEFF1"/>
<path d="M1406 48L1409.18 59.818L1421 63L1409.18 66.182L1406 78L1402.82 66.182L1391 63L1402.82 59.818L1406 48Z" fill="#FAEFF1"/>
<path d="M1449.18 59.818L1446 48L1442.82 59.818L1431 63L1442.82 66.182L1446 78L1449.18 66.182L1461 63L1449.18 59.818Z" fill="#FAEFF1"/>
<path d="M1486 48L1489.18 59.818L1501 63L1489.18 66.182L1486 78L1482.82 66.182L1471 63L1482.82 59.818L1486 48Z" fill="#FAEFF1"/>
<path d="M1529.18 59.818L1526 48L1522.82 59.818L1511 63L1522.82 66.182L1526 78L1529.18 66.182L1541 63L1529.18 59.818Z" fill="#FAEFF1"/>
<path d="M1566 48L1569.18 59.818L1581 63L1569.18 66.182L1566 78L1562.82 66.182L1551 63L1562.82 59.818L1566 48Z" fill="#FAEFF1"/>
<path d="M1609.18 59.818L1606 48L1602.82 59.818L1591 63L1602.82 66.182L1606 78L1609.18 66.182L1621 63L1609.18 59.818Z" fill="#FAEFF1"/>
<path d="M1646 48L1649.18 59.818L1661 63L1649.18 66.182L1646 78L1642.82 66.182L1631 63L1642.82 59.818L1646 48Z" fill="#FAEFF1"/>
<path d="M1689.18 59.818L1686 48L1682.82 59.818L1671 63L1682.82 66.182L1686 78L1689.18 66.182L1701 63L1689.18 59.818Z" fill="#FAEFF1"/>
<path d="M1406 88L1409.18 99.818L1421 103L1409.18 106.182L1406 118L1402.82 106.182L1391 103L1402.82 99.818L1406 88Z" fill="#FAEFF1"/>
<path d="M1449.18 99.818L1446 88L1442.82 99.818L1431 103L1442.82 106.182L1446 118L1449.18 106.182L1461 103L1449.18 99.818Z" fill="#FAEFF1"/>
<path d="M1486 88L1489.18 99.818L1501 103L1489.18 106.182L1486 118L1482.82 106.182L1471 103L1482.82 99.818L1486 88Z" fill="#FAEFF1"/>
<path d="M1529.18 99.818L1526 88L1522.82 99.818L1511 103L1522.82 106.182L1526 118L1529.18 106.182L1541 103L1529.18 99.818Z" fill="#FAEFF1"/>
<path d="M1566 88L1569.18 99.818L1581 103L1569.18 106.182L1566 118L1562.82 106.182L1551 103L1562.82 99.818L1566 88Z" fill="#FAEFF1"/>
<path d="M1609.18 99.818L1606 88L1602.82 99.818L1591 103L1602.82 106.182L1606 118L1609.18 106.182L1621 103L1609.18 99.818Z" fill="#FAEFF1"/>
<path d="M1646 88L1649.18 99.818L1661 103L1649.18 106.182L1646 118L1642.82 106.182L1631 103L1642.82 99.818L1646 88Z" fill="#FAEFF1"/>
<path d="M1689.18 99.818L1686 88L1682.82 99.818L1671 103L1682.82 106.182L1686 118L1689.18 106.182L1701 103L1689.18 99.818Z" fill="#FAEFF1"/>
<path d="M1406 128L1409.18 139.818L1421 143L1409.18 146.182L1406 158L1402.82 146.182L1391 143L1402.82 139.818L1406 128Z" fill="#FAEFF1"/>
<path d="M1449.18 139.818L1446 128L1442.82 139.818L1431 143L1442.82 146.182L1446 158L1449.18 146.182L1461 143L1449.18 139.818Z" fill="#FAEFF1"/>
<path d="M1486 128L1489.18 139.818L1501 143L1489.18 146.182L1486 158L1482.82 146.182L1471 143L1482.82 139.818L1486 128Z" fill="#FAEFF1"/>
<path d="M1529.18 139.818L1526 128L1522.82 139.818L1511 143L1522.82 146.182L1526 158L1529.18 146.182L1541 143L1529.18 139.818Z" fill="#FAEFF1"/>
<path d="M1566 128L1569.18 139.818L1581 143L1569.18 146.182L1566 158L1562.82 146.182L1551 143L1562.82 139.818L1566 128Z" fill="#FAEFF1"/>
<path d="M1609.18 139.818L1606 128L1602.82 139.818L1591 143L1602.82 146.182L1606 158L1609.18 146.182L1621 143L1609.18 139.818Z" fill="#FAEFF1"/>
<path d="M1646 128L1649.18 139.818L1661 143L1649.18 146.182L1646 158L1642.82 146.182L1631 143L1642.82 139.818L1646 128Z" fill="#FAEFF1"/>
<path d="M1689.18 139.818L1686 128L1682.82 139.818L1671 143L1682.82 146.182L1686 158L1689.18 146.182L1701 143L1689.18 139.818Z" fill="#FAEFF1"/>
<path d="M1406 168L1409.18 179.818L1421 183L1409.18 186.182L1406 198L1402.82 186.182L1391 183L1402.82 179.818L1406 168Z" fill="#FAEFF1"/>
<path d="M1449.18 179.818L1446 168L1442.82 179.818L1431 183L1442.82 186.182L1446 198L1449.18 186.182L1461 183L1449.18 179.818Z" fill="#FAEFF1"/>
<path d="M1486 168L1489.18 179.818L1501 183L1489.18 186.182L1486 198L1482.82 186.182L1471 183L1482.82 179.818L1486 168Z" fill="#FAEFF1"/>
<path d="M1529.18 179.818L1526 168L1522.82 179.818L1511 183L1522.82 186.182L1526 198L1529.18 186.182L1541 183L1529.18 179.818Z" fill="#FAEFF1"/>
<path d="M1566 168L1569.18 179.818L1581 183L1569.18 186.182L1566 198L1562.82 186.182L1551 183L1562.82 179.818L1566 168Z" fill="#FAEFF1"/>
<path d="M1609.18 179.818L1606 168L1602.82 179.818L1591 183L1602.82 186.182L1606 198L1609.18 186.182L1621 183L1609.18 179.818Z" fill="#FAEFF1"/>
<path d="M1646 168L1649.18 179.818L1661 183L1649.18 186.182L1646 198L1642.82 186.182L1631 183L1642.82 179.818L1646 168Z" fill="#FAEFF1"/>
<path d="M1689.18 179.818L1686 168L1682.82 179.818L1671 183L1682.82 186.182L1686 198L1689.18 186.182L1701 183L1689.18 179.818Z" fill="#FAEFF1"/>
<path d="M1406 208L1409.18 219.818L1421 223L1409.18 226.182L1406 238L1402.82 226.182L1391 223L1402.82 219.818L1406 208Z" fill="#FAEFF1"/>
<path d="M1449.18 219.818L1446 208L1442.82 219.818L1431 223L1442.82 226.182L1446 238L1449.18 226.182L1461 223L1449.18 219.818Z" fill="#FAEFF1"/>
<path d="M1486 208L1489.18 219.818L1501 223L1489.18 226.182L1486 238L1482.82 226.182L1471 223L1482.82 219.818L1486 208Z" fill="#FAEFF1"/>
<path d="M1529.18 219.818L1526 208L1522.82 219.818L1511 223L1522.82 226.182L1526 238L1529.18 226.182L1541 223L1529.18 219.818Z" fill="#FAEFF1"/>
<path d="M1566 208L1569.18 219.818L1581 223L1569.18 226.182L1566 238L1562.82 226.182L1551 223L1562.82 219.818L1566 208Z" fill="#FAEFF1"/>
<path d="M1609.18 219.818L1606 208L1602.82 219.818L1591 223L1602.82 226.182L1606 238L1609.18 226.182L1621 223L1609.18 219.818Z" fill="#FAEFF1"/>
<path d="M1646 208L1649.18 219.818L1661 223L1649.18 226.182L1646 238L1642.82 226.182L1631 223L1642.82 219.818L1646 208Z" fill="#FAEFF1"/>
<path d="M1689.18 219.818L1686 208L1682.82 219.818L1671 223L1682.82 226.182L1686 238L1689.18 226.182L1701 223L1689.18 219.818Z" fill="#FAEFF1"/>
<mask id="mask0_2_203" style="mask-type:alpha" maskUnits="userSpaceOnUse" x="1219" y="82" width="526" height="385">
<path d="M1312.5 82H1745V467H1312.5L1219 279.404L1312.5 82Z" fill="#F1EFFA"/>
</mask>
<g mask="url(#mask0_2_203)">
<path d="M1409.18 19.818L1406 8L1402.82 19.818L1391 23L1402.82 26.182L1406 38L1409.18 26.182L1421 23L1409.18 19.818Z" fill="white"/>
<path d="M1449.18 19.818L1446 8L1442.82 19.818L1431 23L1442.82 26.182L1446 38L1449.18 26.182L1461 23L1449.18 19.818Z" fill="white"/>
<path d="M1486 8L1489.18 19.818L1501 23L1489.18 26.182L1486 38L1482.82 26.182L1471 23L1482.82 19.818L1486 8Z" fill="white"/>
<path d="M1529.18 19.818L1526 8L1522.82 19.818L1511 23L1522.82 26.182L1526 38L1529.18 26.182L1541 23L1529.18 19.818Z" fill="white"/>
<path d="M1566 8L1569.18 19.818L1581 23L1569.18 26.182L1566 38L1562.82 26.182L1551 23L1562.82 19.818L1566 8Z" fill="white"/>
<path d="M1609.18 19.818L1606 8L1602.82 19.818L1591 23L1602.82 26.182L1606 38L1609.18 26.182L1621 23L1609.18 19.818Z" fill="white"/>
<path d="M1646 8L1649.18 19.818L1661 23L1649.18 26.182L1646 38L1642.82 26.182L1631 23L1642.82 19.818L1646 8Z" fill="white"/>
<path d="M1689.18 19.818L1686 8L1682.82 19.818L1671 23L1682.82 26.182L1686 38L1689.18 26.182L1701 23L1689.18 19.818Z" fill="white"/>
<path d="M1406 48L1409.18 59.818L1421 63L1409.18 66.182L1406 78L1402.82 66.182L1391 63L1402.82 59.818L1406 48Z" fill="white"/>
<path d="M1449.18 59.818L1446 48L1442.82 59.818L1431 63L1442.82 66.182L1446 78L1449.18 66.182L1461 63L1449.18 59.818Z" fill="white"/>
<path d="M1486 48L1489.18 59.818L1501 63L1489.18 66.182L1486 78L1482.82 66.182L1471 63L1482.82 59.818L1486 48Z" fill="white"/>
<path d="M1529.18 59.818L1526 48L1522.82 59.818L1511 63L1522.82 66.182L1526 78L1529.18 66.182L1541 63L1529.18 59.818Z" fill="white"/>
<path d="M1566 48L1569.18 59.818L1581 63L1569.18 66.182L1566 78L1562.82 66.182L1551 63L1562.82 59.818L1566 48Z" fill="white"/>
<path d="M1609.18 59.818L1606 48L1602.82 59.818L1591 63L1602.82 66.182L1606 78L1609.18 66.182L1621 63L1609.18 59.818Z" fill="white"/>
<path d="M1646 48L1649.18 59.818L1661 63L1649.18 66.182L1646 78L1642.82 66.182L1631 63L1642.82 59.818L1646 48Z" fill="white"/>
<path d="M1689.18 59.818L1686 48L1682.82 59.818L1671 63L1682.82 66.182L1686 78L1689.18 66.182L1701 63L1689.18 59.818Z" fill="white"/>
<path d="M1406 88L1409.18 99.818L1421 103L1409.18 106.182L1406 118L1402.82 106.182L1391 103L1402.82 99.818L1406 88Z" fill="white"/>
<path d="M1449.18 99.818L1446 88L1442.82 99.818L1431 103L1442.82 106.182L1446 118L1449.18 106.182L1461 103L1449.18 99.818Z" fill="white"/>
<path d="M1486 88L1489.18 99.818L1501 103L1489.18 106.182L1486 118L1482.82 106.182L1471 103L1482.82 99.818L1486 88Z" fill="white"/>
<path d="M1529.18 99.818L1526 88L1522.82 99.818L1511 103L1522.82 106.182L1526 118L1529.18 106.182L1541 103L1529.18 99.818Z" fill="white"/>
<path d="M1566 88L1569.18 99.818L1581 103L1569.18 106.182L1566 118L1562.82 106.182L1551 103L1562.82 99.818L1566 88Z" fill="white"/>
<path d="M1609.18 99.818L1606 88L1602.82 99.818L1591 103L1602.82 106.182L1606 118L1609.18 106.182L1621 103L1609.18 99.818Z" fill="white"/>
<path d="M1646 88L1649.18 99.818L1661 103L1649.18 106.182L1646 118L1642.82 106.182L1631 103L1642.82 99.818L1646 88Z" fill="white"/>
<path d="M1689.18 99.818L1686 88L1682.82 99.818L1671 103L1682.82 106.182L1686 118L1689.18 106.182L1701 103L1689.18 99.818Z" fill="white"/>
<path d="M1406 128L1409.18 139.818L1421 143L1409.18 146.182L1406 158L1402.82 146.182L1391 143L1402.82 139.818L1406 128Z" fill="white"/>
<path d="M1449.18 139.818L1446 128L1442.82 139.818L1431 143L1442.82 146.182L1446 158L1449.18 146.182L1461 143L1449.18 139.818Z" fill="white"/>
<path d="M1486 128L1489.18 139.818L1501 143L1489.18 146.182L1486 158L1482.82 146.182L1471 143L1482.82 139.818L1486 128Z" fill="white"/>
<path d="M1529.18 139.818L1526 128L1522.82 139.818L1511 143L1522.82 146.182L1526 158L1529.18 146.182L1541 143L1529.18 139.818Z" fill="white"/>
<path d="M1566 128L1569.18 139.818L1581 143L1569.18 146.182L1566 158L1562.82 146.182L1551 143L1562.82 139.818L1566 128Z" fill="white"/>
<path d="M1609.18 139.818L1606 128L1602.82 139.818L1591 143L1602.82 146.182L1606 158L1609.18 146.182L1621 143L1609.18 139.818Z" fill="white"/>
<path d="M1646 128L1649.18 139.818L1661 143L1649.18 146.182L1646 158L1642.82 146.182L1631 143L1642.82 139.818L1646 128Z" fill="white"/>
<path d="M1689.18 139.818L1686 128L1682.82 139.818L1671 143L1682.82 146.182L1686 158L1689.18 146.182L1701 143L1689.18 139.818Z" fill="white"/>
<path d="M1406 168L1409.18 179.818L1421 183L1409.18 186.182L1406 198L1402.82 186.182L1391 183L1402.82 179.818L1406 168Z" fill="white"/>
<path d="M1449.18 179.818L1446 168L1442.82 179.818L1431 183L1442.82 186.182L1446 198L1449.18 186.182L1461 183L1449.18 179.818Z" fill="white"/>
<path d="M1486 168L1489.18 179.818L1501 183L1489.18 186.182L1486 198L1482.82 186.182L1471 183L1482.82 179.818L1486 168Z" fill="white"/>
<path d="M1529.18 179.818L1526 168L1522.82 179.818L1511 183L1522.82 186.182L1526 198L1529.18 186.182L1541 183L1529.18 179.818Z" fill="white"/>
<path d="M1566 168L1569.18 179.818L1581 183L1569.18 186.182L1566 198L1562.82 186.182L1551 183L1562.82 179.818L1566 168Z" fill="white"/>
<path d="M1609.18 179.818L1606 168L1602.82 179.818L1591 183L1602.82 186.182L1606 198L1609.18 186.182L1621 183L1609.18 179.818Z" fill="white"/>
<path d="M1646 168L1649.18 179.818L1661 183L1649.18 186.182L1646 198L1642.82 186.182L1631 183L1642.82 179.818L1646 168Z" fill="white"/>
<path d="M1689.18 179.818L1686 168L1682.82 179.818L1671 183L1682.82 186.182L1686 198L1689.18 186.182L1701 183L1689.18 179.818Z" fill="white"/>
<path d="M1406 208L1409.18 219.818L1421 223L1409.18 226.182L1406 238L1402.82 226.182L1391 223L1402.82 219.818L1406 208Z" fill="white"/>
<path d="M1449.18 219.818L1446 208L1442.82 219.818L1431 223L1442.82 226.182L1446 238L1449.18 226.182L1461 223L1449.18 219.818Z" fill="white"/>
<path d="M1486 208L1489.18 219.818L1501 223L1489.18 226.182L1486 238L1482.82 226.182L1471 223L1482.82 219.818L1486 208Z" fill="white"/>
<path d="M1529.18 219.818L1526 208L1522.82 219.818L1511 223L1522.82 226.182L1526 238L1529.18 226.182L1541 223L1529.18 219.818Z" fill="white"/>
<path d="M1566 208L1569.18 219.818L1581 223L1569.18 226.182L1566 238L1562.82 226.182L1551 223L1562.82 219.818L1566 208Z" fill="white"/>
<path d="M1609.18 219.818L1606 208L1602.82 219.818L1591 223L1602.82 226.182L1606 238L1609.18 226.182L1621 223L1609.18 219.818Z" fill="white"/>
<path d="M1646 208L1649.18 219.818L1661 223L1649.18 226.182L1646 238L1642.82 226.182L1631 223L1642.82 219.818L1646 208Z" fill="white"/>
<path d="M1689.18 219.818L1686 208L1682.82 219.818L1671 223L1682.82 226.182L1686 238L1689.18 226.182L1701 223L1689.18 219.818Z" fill="white"/>
</g>
</svg>
