<svg width="21" height="21" viewBox="0 0 21 21" fill="none" xmlns="http://www.w3.org/2000/svg">
<rect x="1" y="1" width="19" height="19" rx="9.5" stroke="#6667AB" stroke-opacity="0.15" stroke-width="2"/>
<path d="M10.084 12.624H10.696L10.816 11.328C12.184 11.136 13.312 10.392 13.312 8.892C13.312 7.5 12.244 6.492 10.624 6.492C9.34001 6.492 8.48801 7.056 7.80401 7.884L8.41601 8.472C9.02801 7.764 9.71201 7.344 10.6 7.344C11.68 7.344 12.352 8.04 12.352 8.904C12.352 9.936 11.524 10.584 9.96401 10.62L9.90401 10.68L10.084 12.624ZM9.83201 15H10.936V13.74H9.83201V15Z" fill="#3B3643"/>
</svg>
