<svg width="25" height="25" viewBox="0 0 25 25" fill="none" xmlns="http://www.w3.org/2000/svg">
<path d="M20.75 23H4.25C3.00734 23 2 21.9927 2 20.75V4.25C2 3.00734 3.00734 2 4.25 2H20.75C21.9927 2 23 3.00734 23 4.25V20.75C23 21.9927 21.9927 23 20.75 23ZM11.1553 18.4035L19.7803 9.77848C20.0732 9.48561 20.0732 9.01072 19.7803 8.71784L18.7197 7.6572C18.4268 7.36433 17.9519 7.36428 17.659 7.6572L10.625 14.6912L7.34098 11.4072C7.04811 11.1143 6.57322 11.1143 6.2803 11.4072L5.21966 12.4678C4.92678 12.7607 4.92678 13.2356 5.21966 13.5284L10.0947 18.4034C10.3876 18.6964 10.8624 18.6964 11.1553 18.4035V18.4035Z" fill="#E73756"/>
</svg>
