<svg width="30" height="30" viewBox="0 0 30 30" fill="none" xmlns="http://www.w3.org/2000/svg">
<path d="M16.75 6H9.75C9.28587 6 8.84075 6.18964 8.51256 6.52721C8.18437 6.86477 8 7.32261 8 7.8V22.2C8 22.6774 8.18437 23.1352 8.51256 23.4728C8.84075 23.8104 9.28587 24 9.75 24H20.25C20.7141 24 21.1592 23.8104 21.4874 23.4728C21.8156 23.1352 22 22.6774 22 22.2V11.4L16.75 6Z" stroke="#3B3643" stroke-linecap="round" stroke-linejoin="round"/>
<path d="M17 6V12H22" stroke="#3B3643" stroke-linecap="round" stroke-linejoin="round"/>
<path d="M19 16H12" stroke="#3B3643" stroke-linecap="round" stroke-linejoin="round"/>
<path d="M19 19H12" stroke="#3B3643" stroke-linecap="round" stroke-linejoin="round"/>
<path d="M13 12H12.5H12" stroke="#3B3643" stroke-linecap="round" stroke-linejoin="round"/>
</svg>
