<svg width="45" height="45" viewBox="0 0 45 45" fill="none" xmlns="http://www.w3.org/2000/svg">
<path d="M41.2512 31.7249V37.3499C41.2533 37.8721 41.1463 38.389 40.9371 38.8675C40.7279 39.3459 40.4211 39.7754 40.0363 40.1284C39.6515 40.4815 39.1972 40.7502 38.7026 40.9175C38.2079 41.0848 37.6837 41.1469 37.1637 41.0999C31.394 40.473 25.8518 38.5015 20.9824 35.3437C16.4521 32.4649 12.6112 28.624 9.73241 24.0937C6.56362 19.2022 4.59161 13.6331 3.97616 7.83744C3.9293 7.31894 3.99092 6.79636 4.15709 6.30298C4.32327 5.8096 4.59035 5.35623 4.94134 4.97173C5.29233 4.58722 5.71954 4.28002 6.19576 4.06967C6.67199 3.85931 7.18679 3.75043 7.70741 3.74994H13.3324C14.2424 3.74098 15.1245 4.06321 15.8145 4.65656C16.5044 5.24991 16.9551 6.0739 17.0824 6.97494C17.3198 8.77506 17.7601 10.5426 18.3949 12.2437C18.6472 12.9148 18.7018 13.6442 18.5522 14.3453C18.4027 15.0465 18.0553 15.6901 17.5512 16.1999L15.1699 18.5812C17.8391 23.2753 21.7258 27.162 26.4199 29.8312L28.8012 27.4499C29.3109 26.9458 29.9546 26.5984 30.6558 26.4489C31.3569 26.2993 32.0863 26.3539 32.7574 26.6062C34.4585 27.241 36.226 27.6813 38.0262 27.9187C38.937 28.0472 39.7688 28.506 40.3634 29.2077C40.958 29.9095 41.274 30.8054 41.2512 31.7249Z" stroke="#E73756" stroke-width="4" stroke-linecap="round" stroke-linejoin="round"/>
</svg>
