<svg width="650" height="600" viewBox="0 0 650 600" fill="none" xmlns="http://www.w3.org/2000/svg">
<g filter="url(#filter0_dd_199_6)">
<rect x="65" y="65" width="520" height="460" rx="20" fill="white"/>
</g>
<path d="M532.5 102.5L547.5 117.5M532.5 117.5L547.5 102.5L532.5 117.5Z" stroke="#3B3643" stroke-width="2" stroke-linecap="round" stroke-linejoin="round"/>
<path d="M191.418 350.36C195.468 350.36 197.868 349.1 200.028 346.79L197.088 343.64C195.438 345.14 193.968 346.1 191.568 346.1C187.968 346.1 185.478 343.1 185.478 339.5C185.478 335.84 188.028 332.9 191.568 332.9C193.968 332.9 195.348 333.77 196.968 335.24L199.728 332.06C197.778 330.14 195.558 328.64 191.598 328.64C185.148 328.64 180.648 333.53 180.648 339.5C180.648 345.59 185.238 350.36 191.418 350.36ZM217.856 333.92H203.246V350H207.806V337.82H213.296V350H217.856V333.92ZM226.497 350.3C228.717 350.3 230.247 349.49 231.357 348.26V350H235.767V340.67C235.767 338.51 235.227 336.74 234.027 335.54C232.887 334.4 231.087 333.74 228.597 333.74C225.867 333.74 224.127 334.25 222.357 335.03L223.497 338.51C224.967 337.97 226.197 337.64 227.937 337.64C230.217 337.64 231.387 338.69 231.387 340.58V340.85C230.247 340.46 229.077 340.19 227.457 340.19C223.647 340.19 220.977 341.81 220.977 345.32C220.977 348.56 223.467 350.3 226.497 350.3ZM227.877 347.15C226.407 347.15 225.387 346.43 225.387 345.2C225.387 343.7 226.587 342.92 228.537 342.92C229.647 342.92 230.667 343.16 231.447 343.52V344.33C231.447 345.98 230.007 347.15 227.877 347.15ZM247.281 350.36C250.491 350.36 252.291 349.13 253.851 347.42L251.181 344.72C250.071 345.77 249.021 346.43 247.491 346.43C245.001 346.43 243.411 344.45 243.411 341.99C243.411 339.56 245.031 337.55 247.311 337.55C249.111 337.55 250.071 338.21 251.061 339.14L253.731 336.44C252.231 334.76 250.371 333.62 247.341 333.62C242.421 333.62 238.911 337.4 238.911 341.99C238.911 346.64 242.451 350.36 247.281 350.36ZM271.8 333.92H267.51L261.24 343.31V333.92H256.83V350H261.12L267.39 340.64V350H271.8V333.92ZM283.883 346.43C281.633 346.43 279.953 344.57 279.953 342.29C279.953 339.95 281.513 338.09 283.823 338.09C286.073 338.09 287.753 339.98 287.753 342.29C287.753 344.6 286.223 346.43 283.883 346.43ZM283.823 350.36C288.713 350.36 292.253 346.67 292.253 342.23C292.253 337.82 288.713 334.52 284.633 334.52C281.333 334.52 279.383 336.17 278.783 337.22C278.903 335.69 279.713 334.04 282.683 333.44L291.503 331.7L290.783 328.1L282.173 329.69C276.143 330.8 275.423 335.93 275.423 340.76C275.423 346.94 278.393 350.36 283.823 350.36ZM303.392 350.36C308.402 350.36 312.122 346.61 312.122 341.99C312.122 337.31 308.432 333.62 303.452 333.62C298.442 333.62 294.722 337.37 294.722 341.99C294.722 346.67 298.412 350.36 303.392 350.36ZM303.452 346.43C300.932 346.43 299.222 344.36 299.222 341.99C299.222 339.56 300.782 337.55 303.392 337.55C305.912 337.55 307.622 339.62 307.622 341.99C307.622 344.42 306.062 346.43 303.452 346.43ZM325.378 339.02C326.488 337.97 327.988 337.34 329.728 337.34C330.958 337.34 331.828 338.03 331.828 338.87C331.828 339.77 330.958 340.52 329.518 340.52H327.658V343.37H329.548C331.288 343.37 332.218 344.12 332.218 345.02C332.218 345.95 331.228 346.73 329.848 346.73C328.108 346.73 326.338 346.04 325.018 344.9L322.918 347.81C324.748 349.43 327.148 350.36 330.238 350.36C334.048 350.36 336.718 348.23 336.718 345.44C336.718 343.43 335.548 342.29 333.868 341.69C335.278 341.06 336.328 339.98 336.328 338.06C336.328 335.57 333.688 333.71 330.208 333.71C327.418 333.71 325.048 334.73 323.428 336.23L325.378 339.02ZM344.681 350.3C346.901 350.3 348.431 349.49 349.541 348.26V350H353.951V340.67C353.951 338.51 353.411 336.74 352.211 335.54C351.071 334.4 349.271 333.74 346.781 333.74C344.051 333.74 342.311 334.25 340.541 335.03L341.681 338.51C343.151 337.97 344.381 337.64 346.121 337.64C348.401 337.64 349.571 338.69 349.571 340.58V340.85C348.431 340.46 347.261 340.19 345.641 340.19C341.831 340.19 339.161 341.81 339.161 345.32C339.161 348.56 341.651 350.3 344.681 350.3ZM346.061 347.15C344.591 347.15 343.571 346.43 343.571 345.2C343.571 343.7 344.771 342.92 346.721 342.92C347.831 342.92 348.851 343.16 349.631 343.52V344.33C349.631 345.98 348.191 347.15 346.061 347.15ZM367.829 339.02C368.939 337.97 370.439 337.34 372.179 337.34C373.409 337.34 374.279 338.03 374.279 338.87C374.279 339.77 373.409 340.52 371.969 340.52H370.109V343.37H371.999C373.739 343.37 374.669 344.12 374.669 345.02C374.669 345.95 373.679 346.73 372.299 346.73C370.559 346.73 368.789 346.04 367.469 344.9L365.369 347.81C367.199 349.43 369.599 350.36 372.689 350.36C376.499 350.36 379.169 348.23 379.169 345.44C379.169 343.43 377.999 342.29 376.319 341.69C377.729 341.06 378.779 339.98 378.779 338.06C378.779 335.57 376.139 333.71 372.659 333.71C369.869 333.71 367.499 334.73 365.879 336.23L367.829 339.02ZM387.132 350.3C389.352 350.3 390.882 349.49 391.992 348.26V350H396.402V340.67C396.402 338.51 395.862 336.74 394.662 335.54C393.522 334.4 391.722 333.74 389.232 333.74C386.502 333.74 384.762 334.25 382.992 335.03L384.132 338.51C385.602 337.97 386.832 337.64 388.572 337.64C390.852 337.64 392.022 338.69 392.022 340.58V340.85C390.882 340.46 389.712 340.19 388.092 340.19C384.282 340.19 381.612 341.81 381.612 345.32C381.612 348.56 384.102 350.3 387.132 350.3ZM388.512 347.15C387.042 347.15 386.022 346.43 386.022 345.2C386.022 343.7 387.222 342.92 389.172 342.92C390.282 342.92 391.302 343.16 392.082 343.52V344.33C392.082 345.98 390.642 347.15 388.512 347.15ZM414.576 333.92H406.146C401.946 333.92 399.636 336.08 399.636 339.29C399.636 341.78 400.956 343.31 402.996 344.09L398.886 350H404.166L407.556 344.84H410.016V350H414.576V333.92ZM406.926 341.54C405.276 341.54 404.256 340.82 404.256 339.53C404.256 338.21 405.246 337.49 406.896 337.49H410.016V341.54H406.926ZM418.666 333.92V350H427.456C431.176 350 433.456 348.35 433.456 345.62C433.456 343.37 432.256 342.17 430.306 341.57C431.686 340.97 432.856 339.89 432.856 337.94C432.856 335.42 430.726 333.92 427.486 333.92H418.666ZM423.166 340.37V337.28H426.436C427.756 337.28 428.296 337.97 428.296 338.75C428.296 339.68 427.666 340.37 426.376 340.37H423.166ZM423.166 346.43V343.25H426.646C428.206 343.25 428.836 343.94 428.836 344.81C428.836 345.77 428.176 346.43 426.766 346.43H423.166ZM436.654 350H441.214V346.13L443.284 343.88L447.574 350H452.974L446.314 340.52L452.224 333.92H446.974L441.214 340.52V333.92H436.654V350ZM458.834 354.89C461.564 354.89 462.884 353.66 464.114 350.39L470.294 333.92H465.554L462.044 344.87L458.384 333.92H453.554L459.854 350.06C459.464 350.87 459.044 351.11 458.264 351.11C457.664 351.11 456.914 350.84 456.314 350.48L454.784 353.78C455.954 354.47 457.184 354.89 458.834 354.89Z" fill="#333333"/>
<path d="M324.5 302.417C306.35 302.417 291.583 287.65 291.583 269.5C291.583 265.236 292.386 261.087 293.971 257.167C296.401 251.158 300.52 246.034 305.883 242.349C311.374 238.578 317.813 236.583 324.5 236.583C342.65 236.583 357.417 251.35 357.417 269.5C357.417 287.65 342.65 302.417 324.5 302.417ZM324.5 239.074C312.031 239.074 300.953 246.542 296.28 258.102C294.815 261.723 294.074 265.558 294.074 269.5C294.074 286.277 307.723 299.926 324.5 299.926C341.277 299.926 354.926 286.277 354.926 269.5C354.926 252.723 341.277 239.074 324.5 239.074Z" fill="#121331"/>
<path d="M316.895 284.523C316.591 284.523 316.285 284.409 316.049 284.179C315.992 284.124 310.299 278.589 304.699 273.011C304.225 272.538 304.223 271.769 304.695 271.295C305.167 270.821 305.936 270.819 306.411 271.291C310.744 275.606 315.132 279.898 316.913 281.633C320.711 278.091 336.317 263.481 343.767 255.685C343.795 255.655 343.827 255.621 343.858 255.588C344.309 255.092 345.076 255.054 345.572 255.505C346.068 255.955 346.106 256.722 345.655 257.219C345.614 257.264 345.57 257.311 345.527 257.357C336.997 266.282 317.914 284.019 317.722 284.197C317.489 284.415 317.192 284.523 316.895 284.523Z" fill="#E73756"/>
<defs>
<filter id="filter0_dd_199_6" x="0" y="0" width="650" height="600" filterUnits="userSpaceOnUse" color-interpolation-filters="sRGB">
<feFlood flood-opacity="0" result="BackgroundImageFix"/>
<feColorMatrix in="SourceAlpha" type="matrix" values="0 0 0 0 0 0 0 0 0 0 0 0 0 0 0 0 0 0 127 0" result="hardAlpha"/>
<feMorphology radius="25" operator="erode" in="SourceAlpha" result="effect1_dropShadow_199_6"/>
<feOffset dy="40"/>
<feGaussianBlur stdDeviation="30"/>
<feColorMatrix type="matrix" values="0 0 0 0 0.241667 0 0 0 0 0.0090625 0 0 0 0 0.0500326 0 0 0 0.1 0"/>
<feBlend mode="normal" in2="BackgroundImageFix" result="effect1_dropShadow_199_6"/>
<feColorMatrix in="SourceAlpha" type="matrix" values="0 0 0 0 0 0 0 0 0 0 0 0 0 0 0 0 0 0 127 0" result="hardAlpha"/>
<feOffset/>
<feGaussianBlur stdDeviation="32.5"/>
<feColorMatrix type="matrix" values="0 0 0 0 0.395833 0 0 0 0 0 0 0 0 0 0.0712499 0 0 0 0.01 0"/>
<feBlend mode="normal" in2="effect1_dropShadow_199_6" result="effect2_dropShadow_199_6"/>
<feBlend mode="normal" in="SourceGraphic" in2="effect2_dropShadow_199_6" result="shape"/>
</filter>
</defs>
</svg>
