<svg width="70" height="70" viewBox="0 0 70 70" fill="none" xmlns="http://www.w3.org/2000/svg">
<path d="M50.0001 49.9444H54.1589C55.9582 49.9444 57.4167 48.4859 57.4167 46.6866V19.5773C57.4167 17.778 55.9582 16.3195 54.1589 16.3195H15.8412C14.0419 16.3195 12.5834 17.778 12.5834 19.5773V46.6866C12.5834 48.4859 14.0419 49.9444 15.8412 49.9444H31.5001M57.4167 23.1837H12.5834M35 16.3195V23.1837" stroke="#121331" stroke-width="2" stroke-linecap="round" stroke-linejoin="round"/>
<path d="M31.043 37.1067C30.9571 36.9549 30.8799 36.7983 30.8118 36.6377C29.8305 34.3263 30.9106 31.6529 33.2221 30.6717C35.5337 29.6905 38.2071 30.7706 39.1882 33.0821C39.344 33.4483 39.4511 33.8333 39.5067 34.2273" stroke="#E73755" stroke-width="2" stroke-linecap="round" stroke-linejoin="round"/>
<path d="M29.3473 39.6687C28.8602 39.0956 28.4631 38.4517 28.1699 37.7591C26.5698 33.9896 28.3313 29.6299 32.1008 28.0298C35.8704 26.4298 40.2302 28.1912 41.8302 31.9607C42.1456 32.7017 42.3379 33.4891 42.3996 34.292" stroke="#E73755" stroke-width="2" stroke-linecap="round" stroke-linejoin="round"/>
<path d="M38.6911 45.5237L37.6129 39.9665C37.441 39.0809 38.0198 38.2235 38.9054 38.0517C39.7912 37.8798 40.6484 38.4586 40.8203 39.3442L41.8986 44.9014M41.6028 43.3729L41.602 43.3731L41.6028 43.3729ZM41.8986 44.9014L40.9221 39.8687C40.76 39.0337 41.3056 38.2255 42.1405 38.0635C43.077 37.8818 43.9834 38.4937 44.1651 39.43L45.1059 44.2789L41.8986 44.9014ZM45.1059 44.2789L44.6215 41.7816C44.4496 40.8958 45.081 40.3104 45.9667 40.1386C46.8525 39.9667 47.7097 40.5453 47.8817 41.4311L48.3134 43.6566L49.1988 48.2212C49.8292 51.4689 49.2671 53.8227 49.2671 53.8227L50.0284 57.7446L42.7585 59.1548L38.6453 59.9533L37.8848 56.0315C35.6335 55.1129 33.797 53.4008 32.723 51.2193L30.4834 46.6686C30.4375 46.5764 30.4043 46.4783 30.3847 46.3771C30.3385 46.137 30.3692 45.8884 30.4724 45.6667C30.5757 45.4451 30.7463 45.2617 30.9599 45.1426C32.3961 44.3418 34.2109 44.8833 34.9738 46.3403L35.8449 48.0048L35.4837 46.146L34.3899 40.5628L33.7657 37.292L33.3299 35.0455C33.1678 34.2106 33.8055 33.3844 34.6403 33.2224C35.5769 33.0407 36.3912 33.6704 36.5729 34.6068L36.9909 36.7607L37.6061 39.9854L38.6911 45.5237L45.1059 44.2789Z" stroke="#121331" stroke-width="2" stroke-linecap="round" stroke-linejoin="round"/>
</svg>
