<svg width="70" height="70" viewBox="0 0 70 70" fill="none" xmlns="http://www.w3.org/2000/svg">
<path d="M56.5002 28.0001C56.5002 28.0001 56.5313 32.0351 55.9055 32.6609C55.3913 33.1751 54.4069 33.6626 54.4069 33.6626C54.4069 33.6626 49.9366 28.8603 49.3101 28.8763C46.8902 28.938 46.1456 33.5635 46.1456 33.5635L44.3257 33.3973C43.0608 29.7146 39.2206 27.1989 37.6047 25.8622L36.371 30.2497L33.4841 35.1189L37.31 35.7028C36.5437 37.7507 29.7623 51.0229 28.0703 51.0229C27.0806 51.0229 24.5431 48.636 23.9287 46.117C25.0526 42.7452 24.2592 36.5079 24.0219 36.2435L20.2222 36.6355C18.2556 34.3 14.8487 31.9117 17.9349 29.4833C17.9349 29.4833 23.227 26.609 24.5917 26.745C25.4382 26.8295 26.9538 27.9462 27.6334 28.4579C28.8766 29.3941 30.8331 28.5306 30.8331 28.5306L32.636 24.2889L25.5185 21.7218L20.9257 21.5463C20.9257 21.5463 23.9606 19.4935 24.6358 19.077L28.4398 17.2278L24.0219 15.5001M41.5002 14.0001L34.471 15.9628L33.0002 13.0001M54.6578 44L49.3773 37.3026L50.0909 36.1252L55.9055 41.5" stroke="#E73755" stroke-width="2" stroke-linecap="round" stroke-linejoin="round"/>
<path d="M12.5834 35C12.5834 47.3804 22.6197 57.4167 35 57.4167C47.3804 57.4167 57.4167 47.3804 57.4167 35C57.4167 22.6197 47.3804 12.5833 35 12.5833C22.6197 12.5833 12.5834 22.6197 12.5834 35Z" stroke="#121331" stroke-width="2" stroke-linecap="round" stroke-linejoin="round"/>
</svg>
