<svg width="70" height="70" viewBox="0 0 70 70" fill="none" xmlns="http://www.w3.org/2000/svg">
<path d="M45.3995 38.43H39.6623M45.3995 27.1134H24.3908H45.3995ZM45.3995 32.7718H24.3908H45.3995ZM35.2013 38.43H24.3911H35.2013Z" stroke="#3B3643" stroke-width="2" stroke-linecap="round" stroke-linejoin="round"/>
<path d="M34.8951 53.5405C30.3626 51.3973 30.5269 45.3037 30.5269 45.3037C30.5269 45.3037 32.5676 43.8723 34.8951 43.7732M34.9209 53.5405C39.5851 51.3973 39.4163 45.3037 39.4163 45.3037C39.4163 45.3037 37.316 43.8723 34.9209 43.7732" stroke="#E73755" stroke-width="2" stroke-linecap="round" stroke-linejoin="round"/>
<path d="M49.7455 58.0293H19.7368V12.9822H41.4372L45.5916 17.1367L49.7454 21.2905V58.0292L49.7455 58.0293Z" stroke="#3B3643" stroke-width="2" stroke-linecap="round" stroke-linejoin="round"/>
<path d="M48.2619 20.9923H41.4926V13.2384" stroke="#3B3643" stroke-width="2" stroke-linecap="round" stroke-linejoin="round"/>
</svg>
