<svg width="70" height="70" viewBox="0 0 70 70" fill="none" xmlns="http://www.w3.org/2000/svg">
<path d="M57.1367 19.7756H12.5834M54.2797 57.4167H15.7204C13.9879 57.4167 12.5834 56.0122 12.5834 54.2797V15.7204C12.5834 13.9879 13.9879 12.5834 15.7204 12.5834H54.2797C56.0122 12.5834 57.4167 13.9879 57.4167 15.7204V54.2797C57.4167 56.0122 56.0122 57.4167 54.2797 57.4167V57.4167Z" stroke="#121331" stroke-width="2" stroke-linecap="round" stroke-linejoin="round"/>
<path d="M20.9603 16.1794H20.9793M24.901 16.1794H24.92H24.901ZM17.0195 16.1794H17.0386H17.0195Z" stroke="#E73755" stroke-width="2" stroke-linecap="round" stroke-linejoin="round"/>
<path d="M43.1894 25.6456L46.0748 26.1426L45.5778 29.028M23.5116 39.9658L46.0741 26.143L23.5116 39.9658Z" stroke="#E73755" stroke-width="2" stroke-linecap="round" stroke-linejoin="round"/>
<path d="M27.5362 51.6725H23.5116V46.1854H27.5362V51.6725ZM36.8242 51.6725H32.7996V40.6983H36.8242V51.6725ZM46.1122 51.6725H42.0878V34.9828H46.1122V51.6725Z" stroke="#E73755" stroke-width="2" stroke-linecap="round" stroke-linejoin="round"/>
</svg>
