<svg width="70" height="70" viewBox="0 0 70 70" fill="none" xmlns="http://www.w3.org/2000/svg">
<path d="M36.0419 16.3784H30.6298" stroke="#E73755" stroke-width="2" stroke-linecap="round" stroke-linejoin="round"/>
<path d="M43.9896 33.2308V15.8155C43.9896 14.0382 42.5361 12.5832 40.7574 12.5832H25.9141C24.1354 12.5832 22.6818 14.0382 22.6818 15.8155V46.9136C22.6818 48.6923 24.1354 50.1457 25.9141 50.1457H40.7574C42.5361 50.1457 43.9896 48.6923 43.9896 46.9136V39.2987L37.1565 36.9467C35.6082 36.4234 34.7688 34.7278 35.2909 33.1796C35.7081 31.9422 36.8737 31.1578 38.1149 31.1578C38.0049 31.1603 38.7472 31.2077 39.0594 31.3139L43.9896 33.2308ZM43.9896 33.2308L48.5386 34.8162C48.5386 34.8162 48.5438 34.8176 48.5451 34.8201C49.2437 35.1873 49.7965 35.8284 50.0256 36.6434L52.2022 44.4029L53.7133 49.0991C53.7133 49.0991 45.4561 54.6231 41.3268 57.3844M41.3268 57.3844L33.5008 50.1457M41.3268 57.3844L43.8489 61.1528L56.2315 52.8648L53.7121 49.1002" stroke="#121331" stroke-width="2" stroke-linecap="round" stroke-linejoin="round"/>
</svg>
