<svg width="70" height="70" viewBox="0 0 70 70" fill="none" xmlns="http://www.w3.org/2000/svg">
<path d="M17.5967 41.3136V30.3194C17.5967 20.7117 25.3853 12.9231 34.9929 12.9231C44.6006 12.9231 52.3542 20.7117 52.3542 30.3194L52.3835 34.8736M50.1717 49.2692H49.2175C47.9928 49.2692 47 48.2765 47 47.0517V35.5755C47 34.3508 47.9928 33.3581 49.2175 33.3581H50.1717C51.3965 33.3581 52.3892 34.3508 52.3892 35.5755V47.0517C52.3892 48.2765 51.3965 49.2692 50.1717 49.2692ZM20.7685 49.2692H19.8141C18.5894 49.2692 17.5967 48.2765 17.5967 47.0517V35.5755C17.5967 34.3508 18.5894 33.3581 19.8141 33.3581H20.7685C21.9932 33.3581 22.986 34.3508 22.986 35.5755V47.0517C22.986 48.2765 21.9932 49.2692 20.7685 49.2692Z" stroke="#121330" stroke-width="2" stroke-linecap="round" stroke-linejoin="round"/>
<path d="M55.2611 38.3873C56.8677 38.3873 58.17 39.6896 58.17 41.2962C58.17 42.9029 56.8677 44.2053 55.2611 44.2053V38.3873ZM14.8089 44.2053C13.2023 44.2053 11.9 42.9029 11.9 41.2962C11.9 39.6896 13.2023 38.3873 14.8089 38.3873V44.2053Z" stroke="#E73755" stroke-width="2" stroke-linecap="round" stroke-linejoin="round"/>
<path d="M55.2611 38.3873C56.8677 38.3873 58.17 39.6896 58.17 41.2962C58.17 42.9029 56.8677 44.2053 55.2611 44.2053V38.3873ZM14.8089 44.2053C13.2023 44.2053 11.9 42.9029 11.9 41.2962C11.9 39.6896 13.2023 38.3873 14.8089 38.3873V44.2053Z" fill="#E73755"/>
<path d="M55.4765 43.1595L52.05 53.2381C51.1546 55.8718 49.1285 58.01 47.5283 58.01H44.6289M38.6887 58.2994V57.7208C38.6887 56.9782 39.2909 56.3761 40.0334 56.3761H43.2842C44.0268 56.3761 44.6289 56.9782 44.6289 57.7208V58.2994C44.6289 59.042 44.0268 59.6441 43.2842 59.6441H40.0334C39.2909 59.6441 38.6887 59.042 38.6887 58.2994V58.2994Z" stroke="#E73755" stroke-width="2" stroke-linecap="round" stroke-linejoin="round"/>
</svg>
