<svg width="30" height="30" viewBox="0 0 30 30" fill="none" xmlns="http://www.w3.org/2000/svg">
<path d="M22.5 5H7.5C6.11929 5 5 6.11929 5 7.5V22.5C5 23.8807 6.11929 25 7.5 25H22.5C23.8807 25 25 23.8807 25 22.5V7.5C25 6.11929 23.8807 5 22.5 5Z" stroke="#E73756" stroke-width="2" stroke-linecap="round" stroke-linejoin="round"/>
<path d="M18.75 11.25H11.25V18.75H18.75V11.25Z" stroke="#E73756" stroke-width="2" stroke-linecap="round" stroke-linejoin="round"/>
<path d="M11.25 1.25V5" stroke="#E73756" stroke-width="2" stroke-linecap="round" stroke-linejoin="round"/>
<path d="M18.75 1.25V5" stroke="#E73756" stroke-width="2" stroke-linecap="round" stroke-linejoin="round"/>
<path d="M11.25 25V28.75" stroke="#E73756" stroke-width="2" stroke-linecap="round" stroke-linejoin="round"/>
<path d="M18.75 25V28.75" stroke="#E73756" stroke-width="2" stroke-linecap="round" stroke-linejoin="round"/>
<path d="M25 11.25H28.75" stroke="#E73756" stroke-width="2" stroke-linecap="round" stroke-linejoin="round"/>
<path d="M25 17.5H28.75" stroke="#E73756" stroke-width="2" stroke-linecap="round" stroke-linejoin="round"/>
<path d="M1.25 11.25H5" stroke="#E73756" stroke-width="2" stroke-linecap="round" stroke-linejoin="round"/>
<path d="M1.25 17.5H5" stroke="#E73756" stroke-width="2" stroke-linecap="round" stroke-linejoin="round"/>
</svg>
