<svg width="30" height="30" viewBox="0 0 30 30" fill="none" xmlns="http://www.w3.org/2000/svg">
<path d="M15 1.25C14.0054 1.25 13.0516 1.64509 12.3483 2.34835C11.6451 3.05161 11.25 4.00544 11.25 5V15C11.25 15.9946 11.6451 16.9484 12.3483 17.6517C13.0516 18.3549 14.0054 18.75 15 18.75C15.9946 18.75 16.9484 18.3549 17.6517 17.6517C18.3549 16.9484 18.75 15.9946 18.75 15V5C18.75 4.00544 18.3549 3.05161 17.6517 2.34835C16.9484 1.64509 15.9946 1.25 15 1.25V1.25Z" stroke="#E73756" stroke-width="2" stroke-linecap="round" stroke-linejoin="round"/>
<path d="M23.75 12.5V15C23.75 17.3206 22.8281 19.5462 21.1872 21.1872C19.5462 22.8281 17.3206 23.75 15 23.75C12.6794 23.75 10.4538 22.8281 8.81282 21.1872C7.17187 19.5462 6.25 17.3206 6.25 15V12.5" stroke="#E73756" stroke-width="2" stroke-linecap="round" stroke-linejoin="round"/>
<path d="M15 23.75V28.75" stroke="#E73756" stroke-width="2" stroke-linecap="round" stroke-linejoin="round"/>
<path d="M10 28.75H20" stroke="#E73756" stroke-width="2" stroke-linecap="round" stroke-linejoin="round"/>
</svg>
